<?xml version="1.0" encoding="utf-8"?>
<!-- Generator: Adobe Illustrator 23.0.2, SVG Export Plug-In . SVG Version: 6.00 Build 0)  -->
<svg version="1.1" id="Слой_2" xmlns="http://www.w3.org/2000/svg" xmlns:xlink="http://www.w3.org/1999/xlink" x="0px" y="0px"
	 viewBox="0 0 1401.35 1401.63" style="enable-background:new 0 0 1401.35 1401.63;" xml:space="preserve">
<style type="text/css">
	.st0{fill:#F1938B;}
	.st1{fill:#E0807C;}
	.st2{stroke:#76E4D1;stroke-width:10;}
	.st3{fill:#76E4D1;}
	.st4{fill:#74D3BF;}
	.st5{fill:#F7F7F7;}
	.st6{fill:#E5E5E5;}
	.st7{fill:#FFFFFF;}
	.st8{fill:#333333;}
	.st9{fill:#D1D1D1;}
	.st10{fill:#3F3F3F;}
	.st11{fill:#3D3D3D;}
	.st12{fill:#141414;}
	.st13{fill:#5B5B5B;}
	.st14{fill:#444444;}
	.st15{fill:none;}
	.st16{fill:#636363;}
</style>
<path class="st0" d="M535.95,847.85c-0.05,0.47-0.11,0.95-0.15,1.43c0.05,0.34,0.11,0.68,0.16,1.01c0.13,0.38,0.23,0.78,0.28,1.22
	c0.04,0.34,0.08,0.68,0.11,1.02C536.24,850.97,536.12,849.41,535.95,847.85z"/>
<path class="st0" d="M700.67,0C313.7,0,0,313.7,0,700.67s313.7,700.67,700.67,700.67s700.67-313.7,700.67-700.67S1087.65,0,700.67,0
	z M545.94,877.93c-0.63,6.36-10.63,6.4-10,0c0.2-2.05,0.35-4.09,0.48-6.14c-1.59,3.93-8.07,4.02-9.47-0.62
	c-0.03-0.11-0.06-0.23-0.09-0.34c-0.72,1.2-1.82,1.91-3.03,2.16c0,0.03,0,0.05,0,0.08c-0.29,5.04-6.53,6.7-9.32,2.52
	c-0.23-0.35-0.43-0.7-0.64-1.06c-2.18,1.9-5.69,2.05-7.45-1.1c-0.83-1.48-1.5-3.01-2.06-4.56c-0.18,1.14-0.39,2.27-0.67,3.37
	c-0.96,3.73-6.84,5.1-8.89,1.64c-0.33,0.37-0.66,0.75-1.02,1.11c-2.11,2.1-4.93,1.66-7.07,0c-0.68-0.53-1.27-1.1-1.8-1.71
	c-0.65,0.75-1.29,1.5-1.91,2.25c-3.07,3.7-10-0.18-8.4-4.7c-5.96,5.28-11.9,10.64-19.04,14.11c-4.01,1.95-10.09-2.44-6.84-6.84
	c0.61-0.83,1.26-1.64,1.92-2.43c-0.34,0.21-0.67,0.43-1.01,0.64c-0.75,0.47-1.51,0.68-2.25,0.72c-2.76,1.42-5.74,2.3-8.8,1.82
	c-6.59-1.05-8.53-7.51-8.88-13.33c-0.38-6.44,9.62-6.4,10,0c0.07,1.2,0.42,2.23,0.59,3.41c0,0.01,0.02,0.05,0.04,0.1
	c0.04-0.01,0.07-0.02,0.12-0.04c-0.03,0.01,0.97-0.21,1.66-0.52c0.61-0.28,1.21-0.61,1.8-0.95c6.73-11.22,17.12-20.36,27.63-27.89
	c3.11-2.23,7.08,0.63,7.52,3.9c0.37-0.22,0.74-0.45,1.11-0.66c1.57-0.91,3.11-0.88,4.38-0.3c2.73-1.78,7.43-0.51,7.96,2.96
	c0.92-1.37,2.52-2.07,4.13-2.09c0.03-0.09,0.06-0.19,0.1-0.28c1.38-3.64,5.93-4.42,8.32-2.33c0.03-1.3,0.07-2.6,0.13-3.89
	c0.3-6.45,9.68-6.43,10,0c0.09,1.86,0.2,3.72,0.3,5.58c0.08,0.02,0.16,0.06,0.24,0.09c2.18-2.12,6.37-1.66,7.99,1.28
	c0.92-0.51,1.94-0.79,2.93-0.69c1.62-4.66,9.15-2.53,9.44,2.62c1.31-4.4,9.26-3.72,9.84,1.91
	C546.99,857.8,546.94,867.86,545.94,877.93z"/>
<path class="st0" d="M916.31,781.96"/>
<path class="st1" d="M700.67,162.16c41.4-17.54,165.04,2.01,259.96,35.31s161.13,80.33,197.64,117.77
	c64.47,79.89,100.79,140.98,113.46,202.62l31.55,14.02c30.45,143.49,48.13,279.17,36.4,396.88l-26.7,68.68l-64.96,53.69
	l-14.73,104.81c-21.17,26.09-52.32,55.89-90.2,88.19"/>
<path class="st2" d="M258.88,1240.9"/>
<g>
	<path class="st3" d="M701.57,1397.52"/>
	<path class="st3" d="M700.67,271.9c1.61,0.1,3.21,0.21,4.81,0.32c1.6-0.11,3.2-0.22,4.81-0.31L700.67,271.9z"/>
	<path class="st3" d="M1180.53,730.71c6.69-132.74-31.94-242.63-132.32-332.06C944.25,333.63,829.2,280.91,705.48,272.22
		C581.51,280.7,466.2,333.75,362.21,399.1c-100.83,90.14-139.35,200.89-132.68,334.38c-38.46,163.73-2.77,344.08,29.99,506.01
		c132.72,108.81,281.36,155.41,451.67,157.97c164.88-6.48,308.81-67,440.9-163.8C1183.73,1072.74,1219.08,893.16,1180.53,730.71z
		 M545.94,877.93c-0.63,6.36-10.63,6.4-10,0c0.2-2.05,0.35-4.09,0.48-6.14c-1.59,3.93-8.07,4.02-9.47-0.62
		c-0.03-0.11-0.06-0.23-0.09-0.34c-0.72,1.2-1.82,1.91-3.03,2.16c0,0.03,0,0.05,0,0.08c-0.29,5.04-6.53,6.7-9.32,2.52
		c-0.23-0.35-0.43-0.7-0.64-1.06c-2.18,1.9-5.69,2.05-7.45-1.1c-0.83-1.48-1.5-3.01-2.06-4.56c-0.18,1.14-0.39,2.27-0.67,3.37
		c-0.96,3.73-6.84,5.1-8.89,1.64c-0.33,0.37-0.66,0.75-1.02,1.11c-2.11,2.1-4.93,1.66-7.07,0c-0.68-0.53-1.27-1.1-1.8-1.71
		c-0.65,0.75-1.29,1.5-1.91,2.25c-3.07,3.7-10-0.18-8.4-4.7c-5.96,5.28-11.9,10.64-19.04,14.11c-4.01,1.95-10.09-2.44-6.84-6.84
		c0.61-0.83,1.26-1.64,1.92-2.43c-0.34,0.21-0.67,0.43-1.01,0.64c-0.75,0.47-1.51,0.68-2.25,0.72c-2.76,1.42-5.74,2.3-8.8,1.82
		c-6.59-1.05-8.53-7.51-8.88-13.33c-0.38-6.44,9.62-6.4,10,0c0.07,1.2,0.42,2.23,0.59,3.41c0,0.01,0.02,0.05,0.04,0.1
		c0.04-0.01,0.07-0.02,0.12-0.04c-0.03,0.01,0.97-0.21,1.66-0.52c0.61-0.28,1.21-0.61,1.8-0.95c6.73-11.22,17.12-20.36,27.63-27.89
		c3.11-2.23,7.08,0.63,7.52,3.9c0.37-0.22,0.74-0.45,1.11-0.66c1.57-0.91,3.11-0.88,4.38-0.3c2.73-1.78,7.43-0.51,7.96,2.96
		c0.92-1.37,2.52-2.07,4.13-2.09c0.03-0.09,0.06-0.19,0.1-0.28c1.38-3.64,5.93-4.42,8.32-2.33c0.03-1.3,0.07-2.6,0.13-3.89
		c0.3-6.45,9.68-6.43,10,0c0.09,1.86,0.2,3.72,0.3,5.58c0.08,0.02,0.16,0.06,0.24,0.09c2.18-2.12,6.37-1.66,7.99,1.28
		c0.92-0.51,1.94-0.79,2.93-0.69c1.62-4.66,9.15-2.53,9.44,2.62c1.31-4.4,9.26-3.72,9.84,1.91
		C546.99,857.8,546.94,867.86,545.94,877.93z"/>
	<path class="st3" d="M535.95,847.85c-0.05,0.47-0.11,0.95-0.15,1.43c0.05,0.34,0.11,0.68,0.16,1.01c0.13,0.38,0.23,0.78,0.28,1.22
		c0.04,0.34,0.08,0.68,0.11,1.02C536.24,850.97,536.12,849.41,535.95,847.85z"/>
	<path class="st3" d="M706.55,1397.49"/>
	<path class="st3" d="M705.65,271.91c1.61,0.1,3.21,0.21,4.81,0.32c1.6-0.11,3.2-0.22,4.81-0.31L705.65,271.91z"/>
	<path class="st3" d="M535.95,847.85c-0.05,0.47-0.11,0.95-0.15,1.43c0.05,0.34,0.11,0.68,0.16,1.01c0.13,0.38,0.23,0.78,0.28,1.22
		c0.04,0.34,0.08,0.68,0.11,1.02C536.24,850.97,536.12,849.41,535.95,847.85z"/>
	<path class="st3" d="M1185.5,730.69c6.69-132.73-31.94-242.65-132.32-332.06c-103.96-65.02-219-117.72-342.72-126.4
		c-123.97,8.47-239.28,61.53-343.28,126.87c-100.82,90.14-139.36,200.89-132.68,334.37c-38.47,163.71-2.78,344.09,29.99,506
		c132.72,108.82,281.35,155.39,451.66,157.96c164.86-6.48,310.03-69.04,442.11-165.83C1189.92,1070.69,1224.06,893.12,1185.5,730.69
		z M545.94,877.93c-0.63,6.36-10.63,6.4-10,0c0.2-2.05,0.35-4.09,0.48-6.14c-1.59,3.93-8.07,4.02-9.47-0.62
		c-0.03-0.11-0.06-0.23-0.09-0.34c-0.72,1.2-1.82,1.91-3.03,2.16c0,0.03,0,0.05,0,0.08c-0.29,5.04-6.53,6.7-9.32,2.52
		c-0.23-0.35-0.43-0.7-0.64-1.06c-2.18,1.9-5.69,2.05-7.45-1.1c-0.83-1.48-1.5-3.01-2.06-4.56c-0.18,1.14-0.39,2.27-0.67,3.37
		c-0.96,3.73-6.84,5.1-8.89,1.64c-0.33,0.37-0.66,0.75-1.02,1.11c-2.11,2.1-4.93,1.66-7.07,0c-0.68-0.53-1.27-1.1-1.8-1.71
		c-0.65,0.75-1.29,1.5-1.91,2.25c-3.07,3.7-10-0.18-8.4-4.7c-5.96,5.28-11.9,10.64-19.04,14.11c-4.01,1.95-10.09-2.44-6.84-6.84
		c0.61-0.83,1.26-1.64,1.92-2.43c-0.34,0.21-0.67,0.43-1.01,0.64c-0.75,0.47-1.51,0.68-2.25,0.72c-2.76,1.42-5.74,2.3-8.8,1.82
		c-6.59-1.05-8.53-7.51-8.88-13.33c-0.38-6.44,9.62-6.4,10,0c0.07,1.2,0.42,2.23,0.59,3.41c0,0.01,0.02,0.05,0.04,0.1
		c0.04-0.01,0.07-0.02,0.12-0.04c-0.03,0.01,0.97-0.21,1.66-0.52c0.61-0.28,1.21-0.61,1.8-0.95c6.73-11.22,17.12-20.36,27.63-27.89
		c3.11-2.23,7.08,0.63,7.52,3.9c0.37-0.22,0.74-0.45,1.11-0.66c1.57-0.91,3.11-0.88,4.38-0.3c2.73-1.78,7.43-0.51,7.96,2.96
		c0.92-1.37,2.52-2.07,4.13-2.09c0.03-0.09,0.06-0.19,0.1-0.28c1.38-3.64,5.93-4.42,8.32-2.33c0.03-1.3,0.07-2.6,0.13-3.89
		c0.3-6.45,9.68-6.43,10,0c0.09,1.86,0.2,3.72,0.3,5.58c0.08,0.02,0.16,0.06,0.24,0.09c2.18-2.12,6.37-1.66,7.99,1.28
		c0.92-0.51,1.94-0.79,2.93-0.69c1.62-4.66,9.15-2.53,9.44,2.62c1.31-4.4,9.26-3.72,9.84,1.91
		C546.99,857.8,546.94,867.86,545.94,877.93z"/>
	<path class="st3" d="M696.77,1397.56"/>
	<path class="st3" d="M695.86,271.9c1.61,0.1,3.21,0.21,4.81,0.32c1.6-0.11,3.2-0.22,4.81-0.31L695.86,271.9z"/>
	<path class="st3" d="M1175.72,730.73c6.69-132.76-31.93-242.62-132.31-332.07C939.46,333.65,824.39,280.9,700.67,272.22
		C576.69,280.7,461.4,333.75,357.39,399.1c-100.83,90.17-139.34,200.88-132.67,334.39c-38.45,163.74-2.26,346.13,30.51,508.07
		c148.69,118.93,281.04,154.93,453.08,159.76c234.64-17.37,353.75-86.6,438.98-167.61C1178.92,1072.75,1214.27,893.2,1175.72,730.73
		z M545.94,877.93c-0.63,6.36-10.63,6.4-10,0c0.2-2.05,0.35-4.09,0.48-6.14c-1.59,3.93-8.07,4.02-9.47-0.62
		c-0.03-0.11-0.06-0.23-0.09-0.34c-0.72,1.2-1.82,1.91-3.03,2.16c0,0.03,0,0.05,0,0.08c-0.29,5.04-6.53,6.7-9.32,2.52
		c-0.23-0.35-0.43-0.7-0.64-1.06c-2.18,1.9-5.69,2.05-7.45-1.1c-0.83-1.48-1.5-3.01-2.06-4.56c-0.18,1.14-0.39,2.27-0.67,3.37
		c-0.96,3.73-6.84,5.1-8.89,1.64c-0.33,0.37-0.66,0.75-1.02,1.11c-2.11,2.1-4.93,1.66-7.07,0c-0.68-0.53-1.27-1.1-1.8-1.71
		c-0.65,0.75-1.29,1.5-1.91,2.25c-3.07,3.7-10-0.18-8.4-4.7c-5.96,5.28-11.9,10.64-19.04,14.11c-4.01,1.95-10.09-2.44-6.84-6.84
		c0.61-0.83,1.26-1.64,1.92-2.43c-0.34,0.21-0.67,0.43-1.01,0.64c-0.75,0.47-1.51,0.68-2.25,0.72c-2.76,1.42-5.74,2.3-8.8,1.82
		c-6.59-1.05-8.53-7.51-8.88-13.33c-0.38-6.44,9.62-6.4,10,0c0.07,1.2,0.42,2.23,0.59,3.41c0,0.01,0.02,0.05,0.04,0.1
		c0.04-0.01,0.07-0.02,0.12-0.04c-0.03,0.01,0.97-0.21,1.66-0.52c0.61-0.28,1.21-0.61,1.8-0.95c6.73-11.22,17.12-20.36,27.63-27.89
		c3.11-2.23,7.08,0.63,7.52,3.9c0.37-0.22,0.74-0.45,1.11-0.66c1.57-0.91,3.11-0.88,4.38-0.3c2.73-1.78,7.43-0.51,7.96,2.96
		c0.92-1.37,2.52-2.07,4.13-2.09c0.03-0.09,0.06-0.19,0.1-0.28c1.38-3.64,5.93-4.42,8.32-2.33c0.03-1.3,0.07-2.6,0.13-3.89
		c0.3-6.45,9.68-6.43,10,0c0.09,1.86,0.2,3.72,0.3,5.58c0.08,0.02,0.16,0.06,0.24,0.09c2.18-2.12,6.37-1.66,7.99,1.28
		c0.92-0.51,1.94-0.79,2.93-0.69c1.62-4.66,9.15-2.53,9.44,2.62c1.31-4.4,9.26-3.72,9.84,1.91
		C546.99,857.8,546.94,867.86,545.94,877.93z"/>
	<path class="st3" d="M535.95,847.85c-0.05,0.47-0.11,0.95-0.15,1.43c0.05,0.34,0.11,0.68,0.16,1.01c0.13,0.38,0.23,0.78,0.28,1.22
		c0.04,0.34,0.08,0.68,0.11,1.02C536.24,850.97,536.12,849.41,535.95,847.85z"/>
	<path class="st3" d="M703.99,1397.51"/>
	<path class="st3" d="M1182.95,730.7c6.69-132.73-31.94-242.64-132.32-332.06c-103.96-65.02-219.01-117.73-342.72-126.41
		c-123.98,8.48-239.28,61.53-343.28,126.87C263.8,489.24,225.28,599.99,231.95,733.47c-38.46,163.72-2.78,344.09,29.99,506
		c132.95,111.18,283.29,175.06,451.67,157.97c164.86-6.48,308.83-67.01,440.9-163.81C1186.16,1072.73,1221.5,893.14,1182.95,730.7z
		 M545.94,877.93c-0.63,6.36-10.63,6.4-10,0c0.2-2.05,0.35-4.09,0.48-6.14c-1.59,3.93-8.07,4.02-9.47-0.62
		c-0.03-0.11-0.06-0.23-0.09-0.34c-0.72,1.2-1.82,1.91-3.03,2.16c0,0.03,0,0.05,0,0.08c-0.29,5.04-6.53,6.7-9.32,2.52
		c-0.23-0.35-0.43-0.7-0.64-1.06c-2.18,1.9-5.69,2.05-7.45-1.1c-0.83-1.48-1.5-3.01-2.06-4.56c-0.18,1.14-0.39,2.27-0.67,3.37
		c-0.96,3.73-6.84,5.1-8.89,1.64c-0.33,0.37-0.66,0.75-1.02,1.11c-2.11,2.1-4.93,1.66-7.07,0c-0.68-0.53-1.27-1.1-1.8-1.71
		c-0.65,0.75-1.29,1.5-1.91,2.25c-3.07,3.7-10-0.18-8.4-4.7c-5.96,5.28-11.9,10.64-19.04,14.11c-4.01,1.95-10.09-2.44-6.84-6.84
		c0.61-0.83,1.26-1.64,1.92-2.43c-0.34,0.21-0.67,0.43-1.01,0.64c-0.75,0.47-1.51,0.68-2.25,0.72c-2.76,1.42-5.74,2.3-8.8,1.82
		c-6.59-1.05-8.53-7.51-8.88-13.33c-0.38-6.44,9.62-6.4,10,0c0.07,1.2,0.42,2.23,0.59,3.41c0,0.01,0.02,0.05,0.04,0.1
		c0.04-0.01,0.07-0.02,0.12-0.04c-0.03,0.01,0.97-0.21,1.66-0.52c0.61-0.28,1.21-0.61,1.8-0.95c6.73-11.22,17.12-20.36,27.63-27.89
		c3.11-2.23,7.08,0.63,7.52,3.9c0.37-0.22,0.74-0.45,1.11-0.66c1.57-0.91,3.11-0.88,4.38-0.3c2.73-1.78,7.43-0.51,7.96,2.96
		c0.92-1.37,2.52-2.07,4.13-2.09c0.03-0.09,0.06-0.19,0.1-0.28c1.38-3.64,5.93-4.42,8.32-2.33c0.03-1.3,0.07-2.6,0.13-3.89
		c0.3-6.45,9.68-6.43,10,0c0.09,1.86,0.2,3.72,0.3,5.58c0.08,0.02,0.16,0.06,0.24,0.09c2.18-2.12,6.37-1.66,7.99,1.28
		c0.92-0.51,1.94-0.79,2.93-0.69c1.62-4.66,9.15-2.53,9.44,2.62c1.31-4.4,9.26-3.72,9.84,1.91
		C546.99,857.8,546.94,867.86,545.94,877.93z"/>
	<path class="st3" d="M535.95,847.85c-0.05,0.47-0.11,0.95-0.15,1.43c0.05,0.34,0.11,0.68,0.16,1.01c0.13,0.38,0.23,0.78,0.28,1.22
		c0.04,0.34,0.08,0.68,0.11,1.02C536.24,850.97,536.12,849.41,535.95,847.85z"/>
	<path class="st3" d="M703.1,271.91c1.61,0.1,3.21,0.21,4.81,0.32c1.6-0.11,3.2-0.22,4.81-0.31L703.1,271.91z"/>
	<path class="st3" d="M708.31,1397.48"/>
	<g>
		<path class="st3" d="M707.41,271.91c1.61,0.1,3.21,0.21,4.81,0.32c1.6-0.11,3.2-0.22,4.81-0.31L707.41,271.91z"/>
		<path class="st3" d="M1187.26,730.69c6.69-132.71-31.94-242.66-132.32-332.06c-103.96-65.01-219-117.71-342.71-126.39
			c-123.97,8.48-239.28,61.52-343.28,126.87c-100.82,90.14-139.36,200.88-132.68,334.36c-38.47,163.7,311.34,661.38,481.66,663.95
			c35.77-1.41,70.04-9.55,104.46-11.67c106.19-6.54,223.64-69.6,337.1-155.48C1191.12,1069.36,1225.82,893.11,1187.26,730.69z
			 M545.94,877.93c-0.63,6.36-10.63,6.4-10,0c0.2-2.05,0.35-4.09,0.48-6.14c-1.59,3.93-8.07,4.02-9.47-0.62
			c-0.03-0.11-0.06-0.23-0.09-0.34c-0.72,1.2-1.82,1.91-3.03,2.16c0,0.03,0,0.05,0,0.08c-0.29,5.04-6.53,6.7-9.32,2.52
			c-0.23-0.35-0.43-0.7-0.64-1.06c-2.18,1.9-5.69,2.05-7.45-1.1c-0.83-1.48-1.5-3.01-2.06-4.56c-0.18,1.14-0.39,2.27-0.67,3.37
			c-0.96,3.73-6.84,5.1-8.89,1.64c-0.33,0.37-0.66,0.75-1.02,1.11c-2.11,2.1-4.93,1.66-7.07,0c-0.68-0.53-1.27-1.1-1.8-1.71
			c-0.65,0.75-1.29,1.5-1.91,2.25c-3.07,3.7-10-0.18-8.4-4.7c-5.96,5.28-11.9,10.64-19.04,14.11c-4.01,1.95-10.09-2.44-6.84-6.84
			c0.61-0.83,1.26-1.64,1.92-2.43c-0.34,0.21-0.67,0.43-1.01,0.64c-0.75,0.47-1.51,0.68-2.25,0.72c-2.76,1.42-5.74,2.3-8.8,1.82
			c-6.59-1.05-8.53-7.51-8.88-13.33c-0.38-6.44,9.62-6.4,10,0c0.07,1.2,0.42,2.23,0.59,3.41c0,0.01,0.02,0.05,0.04,0.1
			c0.04-0.01,0.07-0.02,0.12-0.04c-0.03,0.01,0.97-0.21,1.66-0.52c0.61-0.28,1.21-0.61,1.8-0.95c6.73-11.22,17.12-20.36,27.63-27.89
			c3.11-2.23,7.08,0.63,7.52,3.9c0.37-0.22,0.74-0.45,1.11-0.66c1.57-0.91,3.11-0.88,4.38-0.3c2.73-1.78,7.43-0.51,7.96,2.96
			c0.92-1.37,2.52-2.07,4.13-2.09c0.03-0.09,0.06-0.19,0.1-0.28c1.38-3.64,5.93-4.42,8.32-2.33c0.03-1.3,0.07-2.6,0.13-3.89
			c0.3-6.45,9.68-6.43,10,0c0.09,1.86,0.2,3.72,0.3,5.58c0.08,0.02,0.16,0.06,0.24,0.09c2.18-2.12,6.37-1.66,7.99,1.28
			c0.92-0.51,1.94-0.79,2.93-0.69c1.62-4.66,9.15-2.53,9.44,2.62c1.31-4.4,9.26-3.72,9.84,1.91
			C546.99,857.8,546.94,867.86,545.94,877.93z"/>
		<path class="st3" d="M535.95,847.85c-0.05,0.47-0.11,0.95-0.15,1.43c0.05,0.34,0.11,0.68,0.16,1.01c0.13,0.38,0.23,0.78,0.28,1.22
			c0.04,0.34,0.08,0.68,0.11,1.02C536.24,850.97,536.12,849.41,535.95,847.85z"/>
	</g>
</g>
<path class="st3" d="M1158.27,1231.6c-54.14,48.68-121.25,88.62-206.49,123.21c-92.61,36.34-192.17,51.92-299.16,45.3"/>
<path class="st4" d="M389.17,974.18c-1.74,126.25,8.9,249.13,31.19,368.85c48.35,24.33,100.09,40.99,155.04,50.3l183.43-382.99
	L389.17,974.18"/>
<path class="st4" d="M1044.8,954.11c-2.48,127.51-16.86,253.95-42.87,379.35c-48.26,22.66-99.76,41.14-156.24,53.17l-107.08-305.91"
	/>
<path class="st5" d="M712.72,1204.05l3.64,197.36c-22.21,0.58-43.32-0.12-63.74-0.89c-27.35-1.03-52.78-3.07-77.22-7.19
	c14.62-43.15,21.3-89.07,22.04-137.06c0.63-13.28-1.94-30.04-9.48-52.22"/>
<path class="st5" d="M824.63,1256.27c-0.56-18.09,1.99-35.62,9.71-52.22H701.57l14.78,197.36c19.9-0.35,40.54-1.71,61.79-4
	c23.27-1.71,45.75-5.39,67.54-10.78C829.33,1358.81,825.59,1309.87,824.63,1256.27H597.44"/>
<path class="st6" d="M596.42,1282.44l108.69,49.88c41.71-14.47,81.78-31.12,120.27-49.88c-2.77-26.38-1.37-51.53,7.56-75.25
	l-244.98-3.14C597.78,1228.5,599.16,1254.97,596.42,1282.44z"/>
<path class="st7" d="M700.37,391.46l9.84,864.88c1.31,0.4,2.62,0.75,3.94,1.05c1.34-0.45,2.68-0.89,4.03-1.35
	c0.42-0.2,0.83-0.34,1.24-0.41c76.1-25.94,165.77-70.94,240.05-126.37c47.95-64.64,80.56-150.8,106.79-245.93L700.37,391.46z"/>
<path class="st7" d="M535.95,847.85c-0.05,0.47-0.11,0.95-0.15,1.43c0.05,0.34,0.11,0.68,0.16,1.01c0.13,0.38,0.23,0.78,0.28,1.22
	c0.04,0.34,0.08,0.68,0.11,1.02C536.24,850.97,536.12,849.41,535.95,847.85z"/>
<path class="st7" d="M360.77,883.33c26.23,95.13,58.84,181.29,106.79,245.93c74.44,55.55,164.32,100.61,240.53,126.53
	c0.35,0.04,0.72,0.12,1.11,0.24c2,0.66,4.03,1.16,6.08,1.6c0.51-0.28,1.03-0.56,1.54-0.85l9.84-865.32L360.77,883.33z
	 M545.94,877.93c-0.63,6.36-10.63,6.4-10,0c0.2-2.05,0.35-4.09,0.48-6.14c-1.59,3.93-8.07,4.02-9.47-0.62
	c-0.03-0.11-0.06-0.23-0.09-0.34c-0.72,1.2-1.82,1.91-3.03,2.16c0,0.03,0,0.05,0,0.08c-0.29,5.04-6.53,6.7-9.32,2.52
	c-0.23-0.35-0.43-0.7-0.64-1.06c-2.18,1.9-5.69,2.05-7.45-1.1c-0.83-1.48-1.5-3.01-2.06-4.56c-0.18,1.14-0.39,2.27-0.67,3.37
	c-0.96,3.73-6.84,5.1-8.89,1.64c-0.33,0.37-0.66,0.75-1.02,1.11c-2.11,2.1-4.93,1.66-7.07,0c-0.68-0.53-1.27-1.1-1.8-1.71
	c-0.65,0.75-1.29,1.5-1.91,2.25c-3.07,3.7-10-0.18-8.4-4.7c-5.96,5.28-11.9,10.64-19.04,14.11c-4.01,1.95-10.09-2.44-6.84-6.84
	c0.61-0.83,1.26-1.64,1.92-2.43c-0.34,0.21-0.67,0.43-1.01,0.64c-0.75,0.47-1.51,0.68-2.25,0.72c-2.76,1.42-5.74,2.3-8.8,1.82
	c-6.59-1.05-8.53-7.51-8.88-13.33c-0.38-6.44,9.62-6.4,10,0c0.07,1.2,0.42,2.23,0.59,3.41c0,0.01,0.02,0.05,0.04,0.1
	c0.04-0.01,0.07-0.02,0.12-0.04c-0.03,0.01,0.97-0.21,1.66-0.52c0.61-0.28,1.21-0.61,1.8-0.95c6.73-11.22,17.12-20.36,27.63-27.89
	c3.11-2.23,7.08,0.63,7.52,3.9c0.37-0.22,0.74-0.45,1.11-0.66c1.57-0.91,3.11-0.88,4.38-0.3c2.73-1.78,7.43-0.51,7.96,2.96
	c0.92-1.37,2.52-2.07,4.13-2.09c0.03-0.09,0.06-0.19,0.1-0.28c1.38-3.64,5.93-4.42,8.32-2.33c0.03-1.3,0.07-2.6,0.13-3.89
	c0.3-6.45,9.68-6.43,10,0c0.09,1.86,0.2,3.72,0.3,5.58c0.08,0.02,0.16,0.06,0.24,0.09c2.18-2.12,6.37-1.66,7.99,1.28
	c0.92-0.51,1.94-0.79,2.93-0.69c1.62-4.66,9.15-2.53,9.44,2.62c1.31-4.4,9.26-3.72,9.84,1.91
	C546.99,857.8,546.94,867.86,545.94,877.93z"/>
<path class="st6" d="M535.94,877.93c0.2-2.05,0.35-4.09,0.48-6.14c-1.59,3.93-8.07,4.02-9.47-0.62c-0.03-0.11-0.06-0.23-0.09-0.34
	c-0.72,1.2-1.82,1.91-3.03,2.16c0,0.03,0,0.05,0,0.08c-0.29,5.04-6.53,6.7-9.32,2.52c-0.23-0.35-0.43-0.7-0.64-1.06
	c-2.18,1.9-5.69,2.05-7.45-1.1c-0.83-1.48-1.5-3.01-2.06-4.56c-0.18,1.14-0.39,2.27-0.67,3.37c-0.96,3.73-6.84,5.1-8.89,1.64
	c-0.33,0.37-0.66,0.75-1.02,1.11c-2.11,2.1-4.93,1.66-7.07,0c-0.68-0.53-1.27-1.1-1.8-1.71c-0.65,0.75-1.29,1.5-1.91,2.25
	c-3.07,3.7-10-0.18-8.4-4.7c-5.96,5.28-11.9,10.64-19.04,14.11c-2.53,1.23-5.88-0.06-7.19-2.29l-76.63,38.57l30.21,86.57
	l141.77-71.48v-54.57C540.61,883.82,535.49,882.57,535.94,877.93z"/>
<path class="st6" d="M531.59,840.77c2.24,0.5,4.38,2.37,4.52,5.08c0.9-3.06,4.98-3.68,7.61-1.91v-9.28L531.59,840.77z"/>
<path class="st6" d="M535.96,850.29c0.13,0.38,0.23,0.78,0.28,1.22c0.04,0.34,0.08,0.68,0.11,1.02c-0.11-1.56-0.23-3.12-0.4-4.68
	c-0.05,0.47-0.11,0.95-0.15,1.43C535.85,849.61,535.91,849.95,535.96,850.29z"/>
<path class="st6" d="M453.26,758.99l45.51,81.63c1.96-1.3,4.65-1.23,6.3,0.22c0.03-1.3,0.07-2.6,0.13-3.89c0.3-6.45,9.68-6.43,10,0
	c0.09,1.86,0.2,3.72,0.3,5.58c0.08,0.02,0.16,0.06,0.24,0.09c2.18-2.12,6.37-1.66,7.99,1.28c0.92-0.51,1.94-0.79,2.93-0.69
	c1.62-4.66,9.15-2.53,9.44,2.62c1.31-4.4,9.26-3.72,9.84,1.91c1.05,10.07,0.99,20.13,0,30.2c-0.63,6.36-10.63,6.4-10,0
	c0.2-2.05,0.35-4.09,0.48-6.14c-1.59,3.93-8.07,4.02-9.47-0.62c-0.03-0.11-0.06-0.23-0.09-0.34c-0.72,1.2-1.82,1.91-3.03,2.16
	c0,0.03,0,0.05,0,0.08c-0.16,2.75-2.1,4.49-4.28,4.82l24.16,43.33l241.41-117.19l14.56-146.83L453.26,758.99z"/>
<path class="st6" d="M535.96,850.29c0.13,0.38,0.23,0.78,0.28,1.22c0.04,0.34,0.08,0.68,0.11,1.02c-0.11-1.56-0.23-3.12-0.4-4.68
	c-0.05,0.47-0.11,0.95-0.15,1.43C535.85,849.61,535.91,849.95,535.96,850.29z"/>
<path class="st6" d="M790.18,789.22c47.29,3.89,98.32-1.39,151.48-11.87l6.07-91.01l-237.5-14.56"/>
<path class="st6" d="M905.44,783.69c32.18,73.77,74.82,143.76,124.75,211.13l28.93-86.48l-111.4-177.2"/>
<polyline class="st3" points="360.77,988.49 543.71,896.27 592.18,456.99 337.35,639.01 "/>
<polyline class="st3" points="521.8,391.46 883.31,355.06 786.34,757.93 546.12,874.43 "/>
<path class="st3" d="M790.05,742.51c73.9,11.64,149.13-14.12,224.42-41.84L721.62,486.11"/>
<path class="st3" d="M1045.05,953.37c-56.63-59.21-102.38-145.39-139.6-252.69h191.54l-30.74,278.11"/>
<path class="st4" d="M545.94,847.73c0.92,8.88,0.99,17.75,0.31,26.63l51.18-24.82l-53.73-294.26l2.21,292.29
	C545.93,847.62,545.94,847.67,545.94,847.73z"/>
<path class="st4" d="M790.18,742.16c13.77,2.63,27.81,3.61,42.07,3.22l-42.07-190.1"/>
<path class="st4" d="M916.31,732.31c-8.19,2.7-17.25,4.92-27.51,6.47V488.54C893.72,576.52,902.19,658.87,916.31,732.31z"/>
<polygon class="st8" points="780.27,978.79 799.69,1007.8 811.21,1003.06 953.8,978.79 965.93,978.79 965.93,954.11 947.73,960.58 
	799.69,980.95 "/>
<polygon class="st8" points="648.07,981.36 628.66,1010.37 617.13,1005.63 474.54,981.36 462.41,981.36 462.41,956.68 
	480.61,963.16 628.66,983.53 "/>
<polyline class="st9" points="710.23,1044.31 710.23,1078.29 726.65,1061.3 "/>
<polyline class="st10" points="667.42,1183.75 753.57,1183.75 667.42,1191.15 "/>
<path class="st11" d="M813.47,857.55c-13.22-0.21-19.5,7.76-19.42,23.25c38.4-15.69,96.5-15.1,158.09-11.62
	C909.93,862.5,869.24,854.77,813.47,857.55z"/>
<polyline class="st12" points="462.41,977.31 488.2,964.31 462.41,956.68 "/>
<g>
	<path class="st13" d="M709.89,277.9c-146.5,1.65-256.84,61.35-351.44,171.19c-66.11,189.77-85.63,389.51-78.65,589.51
		c-23.79-6.98-47.59-13.96-71.39-20.91c-11.28-24.81-22.56-49.62-33.86-74.42c-19.78,11.89-42.11-25.22-51.91-38.81
		c-10.41-124.25,2.12-248.78,38.51-368.1c14.39-13.28,29.54-24.51,46.67-34.02c93.9-227.3,270.44-335.15,513.79-338.59"/>
</g>
<path class="st14" d="M207.82,502.33c-38.23,160.53-50.72,308.21-33.27,440.93c-19,5.41-35.98-11.02-51.91-38.81
	c-8.05-136.24,2.62-260.34,38.51-368.1C174.7,519.86,190.21,508.4,207.82,502.33z"/>
<path class="st11" d="M569.44,863.82c-2.69,1.23-5.53,2.47-8.29,3.87c28.14,1.26,53.28,5,73.14,13.11
	c0.09-15.49-6.2-23.46-19.42-23.25c-10.63-0.53-20.7-0.66-30.34-0.5C579.54,859.41,574.44,861.53,569.44,863.82z"/>
<line class="st15" x1="475.3" y1="735.42" x2="924.23" y2="735.42"/>
<g>
	<path class="st13" d="M692.76,277.9c146.5,1.65,256.84,61.35,351.44,171.19c66.11,189.77,85.63,389.51,78.65,589.51
		c23.79-6.98,47.59-13.96,71.39-20.91c11.28-24.81,22.56-49.62,33.86-74.42c19.78,11.89,42.11-25.22,51.91-38.81
		c10.41-124.25-2.12-248.78-38.51-368.1c-14.39-13.28-29.54-24.51-46.67-34.02c-93.9-227.3-270.44-335.15-513.79-338.59"/>
</g>
<path class="st14" d="M1194.83,502.33c38.23,160.53,50.72,308.21,33.27,440.93c19,5.41,35.98-11.02,51.91-38.81
	c8.05-136.24-2.62-260.34-38.51-368.1C1227.95,519.86,1212.44,508.4,1194.83,502.33z"/>
<path class="st16" d="M207.82,502.33l148.22-47.4c76.12-99.79,190.02-156.16,333.09-170.48c157.21-3.27,264.8,64.7,359.7,178.38
	l145.99,39.5c-38.59-99.54-88.89-173.51-171.57-233.55c-74.94-65.19-187.95-103.91-326.03-108.95
	c-108.41,5.31-202.96,41.48-283.71,92.08C312.72,315.63,252.01,401.03,207.82,502.33z"/>
</svg>
